<svg width="257" height="298" viewBox="0 0 257 298" fill="none" xmlns="http://www.w3.org/2000/svg">
<path d="M64.4898 241.948C64.4898 241.948 83.5017 241.684 100.931 225.762" stroke="#6C6C6C" stroke-width="19.8144" stroke-miterlimit="10" stroke-linecap="round" stroke-linejoin="round"/>
<path d="M79.404 176.343C75.6617 189.29 80.1195 211.558 77.9546 227.361" stroke="#383838" stroke-width="19.8144" stroke-miterlimit="10" stroke-linecap="round" stroke-linejoin="round"/>
<path d="M95.2044 254.306C95.2044 254.306 114.216 254.043 131.646 238.12" stroke="#6C6C6C" stroke-width="19.8144" stroke-miterlimit="10" stroke-linecap="round" stroke-linejoin="round"/>
<path d="M110.119 188.701C106.376 201.649 110.834 223.916 108.669 239.719" stroke="#383838" stroke-width="19.8144" stroke-miterlimit="10" stroke-linecap="round" stroke-linejoin="round"/>
<path d="M170.638 48.4084L191.108 57.0484" stroke="#383838" stroke-width="18.2925" stroke-miterlimit="10" stroke-linecap="round" stroke-linejoin="round"/>
<path d="M191.108 26.4785L171.418 45.8484" stroke="#6C6C6C" stroke-width="23.5189" stroke-miterlimit="10" stroke-linecap="round" stroke-linejoin="round"/>
<path d="M190.028 33.8185L170.338 53.1985" stroke="#383838" stroke-width="16" stroke-miterlimit="10" stroke-linecap="round" stroke-linejoin="round"/>
<path d="M117.888 191.528C93.2077 187.638 76.3678 164.478 80.2578 139.798L96.1778 38.9285C100.068 14.2585 123.228 -2.59153 147.908 1.29847C172.578 5.18847 189.428 28.3485 185.538 53.0285L169.618 153.898C165.728 178.568 142.568 195.418 117.888 191.528Z" fill="#2F2F2F"/>
<path d="M88.3478 97.5984L15.2378 140.168C2.70776 147.468 1.83776 165.258 13.5978 173.738L29.4378 185.158C58.5978 206.188 96.0178 212.098 130.238 201.088L148.528 195.198C178.628 185.508 191.188 149.788 173.788 123.388" fill="#E9CB9B"/>
<path d="M93.1777 209.307C83.4669 211.136 51.8662 203.517 28.4034 188.728C2.2847 172.265 2.2847 157.174 2.2847 157.174C2.2847 157.174 37.3023 146.825 56.6116 157.174C77.0229 168.113 102.889 207.477 93.1777 209.307Z" fill="white"/>
<path d="M24.3994 187.609C50.9223 208.978 98.2847 214.574 98.2847 214.574C98.2847 214.574 60.2847 196.703 41.7847 182.074C36.1635 177.629 24.8266 167.303 16.7847 163.574C4.41096 157.838 2.61268 156.574 2.61268 156.574C2.61268 156.574 -2.12354 166.241 24.3994 187.609Z" fill="#D9D9D9"/>
<path d="M149.785 116.074L86.7847 97.0743C86.7847 97.0743 -7.21527 143.574 2.2847 156.574C11.7847 169.574 55.7847 170.469 71.2847 165.574C99.7847 156.574 149.785 116.074 149.785 116.074Z" fill="#61514C"/>
<path d="M148.11 175L160.11 147.5C160.11 147.5 159.61 136.5 146.11 128.5C135.217 122.045 108.11 117 108.11 117L68.6102 147.5L148.11 175Z" stroke="#4377D7" stroke-width="8"/>
<path d="M104.828 220.658L82.8077 218.328C75.3377 217.538 71.4077 209.058 75.6377 202.848L122.058 134.638C128.608 125.008 141.238 121.648 151.718 126.738C161.638 131.568 166.858 142.658 164.248 153.378L156.778 184.108C151.068 207.578 128.858 223.208 104.828 220.658Z" fill="#61514C"/>
<path d="M128.928 134.398C127.208 133.558 125.428 132.979 123.628 132.589C123.078 133.239 122.538 133.908 122.058 134.628L75.6377 202.838C71.4077 209.048 75.3377 217.528 82.8077 218.318L104.828 220.648C107.728 220.958 110.598 220.988 113.408 220.788C123.408 214.288 130.978 204.108 133.988 191.758L141.458 161.028C144.068 150.318 138.848 139.228 128.928 134.398Z" fill="#453A36"/>
<path d="M129.785 90.5743C124.785 76.0742 175.285 93.5744 182.785 70.5743L174.785 125.074C174.785 125.074 134.785 105.074 129.785 90.5743Z" fill="white"/>
<path d="M86.2847 97.5743L118.285 106.574C118.285 106.574 118.285 78.5743 122.785 50.0742C127.285 21.5742 156.785 3.57428 156.785 3.57428C156.785 3.57428 139.285 -5.66962 118.285 5.57421C109.392 10.3358 101.785 23.0742 101.785 23.0742C84.2847 50.0742 86.2847 97.5743 86.2847 97.5743Z" fill="#212121"/>
<path d="M34.1102 160C49.071 154.645 118.285 106.574 118.285 106.574L85.7849 97.5743C85.7849 97.5743 -11.3897 145.5 1.11024 157C13.6102 168.5 25.9356 162.926 34.1102 160Z" fill="#453A36"/>
<ellipse cx="162.61" cy="40" rx="9" ry="13" fill="white"/>
<path d="M64.4898 241.948C64.4898 241.948 83.5017 241.684 100.931 225.762" stroke="#595959" stroke-width="19.8144" stroke-miterlimit="10" stroke-linecap="round" stroke-linejoin="round"/>
<path d="M79.404 176.343C75.6617 189.29 80.1195 211.558 77.9546 227.361" stroke="#383838" stroke-width="19.8144" stroke-miterlimit="10" stroke-linecap="round" stroke-linejoin="round"/>
<path d="M95.2044 254.306C95.2044 254.306 114.216 254.043 131.646 238.12" stroke="#595959" stroke-width="19.8144" stroke-miterlimit="10" stroke-linecap="round" stroke-linejoin="round"/>
<path d="M110.119 188.701C106.376 201.649 110.834 223.916 108.669 239.719" stroke="#383838" stroke-width="19.8144" stroke-miterlimit="10" stroke-linecap="round" stroke-linejoin="round"/>
<path d="M170.638 48.4084L191.108 57.0484" stroke="#383838" stroke-width="18.2925" stroke-miterlimit="10" stroke-linecap="round" stroke-linejoin="round"/>
<path d="M191.108 26.4785L171.418 45.8484" stroke="#595959" stroke-width="23.5189" stroke-miterlimit="10" stroke-linecap="round" stroke-linejoin="round"/>
<path d="M190.028 33.8185L170.338 53.1985" stroke="#383838" stroke-width="16" stroke-miterlimit="10" stroke-linecap="round" stroke-linejoin="round"/>
<path d="M117.888 191.528C93.2077 187.638 76.3678 164.478 80.2578 139.798L96.1778 38.9285C100.068 14.2585 123.228 -2.59153 147.908 1.29847C172.578 5.18847 189.428 28.3485 185.538 53.0285L169.618 153.898C165.728 178.568 142.568 195.418 117.888 191.528Z" fill="#2F2F2F"/>
<path d="M88.3478 97.5984L15.2378 140.168C2.70776 147.468 1.83776 165.258 13.5978 173.738L29.4378 185.158C58.5978 206.188 96.0178 212.098 130.238 201.088L148.528 195.198C178.628 185.508 191.188 149.788 173.788 123.388" fill="#E9CB9B"/>
<path d="M93.1777 209.307C83.4669 211.136 51.8662 203.517 28.4034 188.728C2.2847 172.265 2.2847 157.174 2.2847 157.174C2.2847 157.174 37.3023 146.825 56.6116 157.174C77.0229 168.113 102.889 207.477 93.1777 209.307Z" fill="white"/>
<path d="M24.3994 187.609C50.9223 208.978 98.2847 214.574 98.2847 214.574C98.2847 214.574 60.2847 196.703 41.7847 182.074C36.1635 177.629 24.8266 167.303 16.7847 163.574C4.41096 157.838 2.61268 156.574 2.61268 156.574C2.61268 156.574 -2.12354 166.241 24.3994 187.609Z" fill="#D9D9D9"/>
<path d="M149.785 116.074L86.7847 97.0743C86.7847 97.0743 -7.21527 143.574 2.2847 156.574C11.7847 169.574 55.7847 170.469 71.2847 165.574C99.7847 156.574 149.785 116.074 149.785 116.074Z" fill="#61514C"/>
<path d="M52.9974 199L251.497 220" stroke="#362C20" stroke-width="10" stroke-linecap="round"/>
<path d="M104.828 220.658L82.8077 218.328C75.3377 217.538 71.4077 209.058 75.6377 202.848L122.058 134.638C128.608 125.008 141.238 121.648 151.718 126.738C161.638 131.568 166.858 142.658 164.248 153.378L156.778 184.108C151.068 207.578 128.858 223.208 104.828 220.658Z" fill="#61514C"/>
<path d="M128.928 134.398C127.208 133.558 125.428 132.979 123.628 132.589C123.078 133.239 122.538 133.908 122.058 134.628L75.6377 202.838C71.4077 209.048 75.3377 217.528 82.8077 218.318L104.828 220.648C107.728 220.958 110.598 220.988 113.408 220.788C123.408 214.288 130.978 204.108 133.988 191.758L141.458 161.028C144.068 150.318 138.848 139.228 128.928 134.398Z" fill="#453A36"/>
<path d="M129.785 90.5743C124.785 76.0742 175.285 93.5744 182.785 70.5743L174.785 125.074C174.785 125.074 134.785 105.074 129.785 90.5743Z" fill="white"/>
<path d="M86.2847 97.5743L118.285 106.574C118.285 106.574 118.285 78.5743 122.785 50.0742C127.285 21.5742 156.785 3.57428 156.785 3.57428C156.785 3.57428 139.285 -5.66962 118.285 5.57421C109.392 10.3358 101.785 23.0742 101.785 23.0742C84.2847 50.0742 86.2847 97.5743 86.2847 97.5743Z" fill="#212121"/>
<path d="M34.1102 160C49.071 154.645 118.285 106.574 118.285 106.574L85.7849 97.5743C85.7849 97.5743 -11.3897 145.5 1.11024 157C13.6102 168.5 25.9356 162.926 34.1102 160Z" fill="#453A36"/>
<ellipse cx="162.61" cy="40" rx="9" ry="13" fill="white"/>
<path d="M246.221 291.47C237.084 282.102 248.637 216.927 245.094 213.979C241.55 211.03 166.847 197.615 170.492 207.563C174.138 217.511 154.882 268.797 168.091 283.106C181.301 297.415 255.359 300.838 246.221 291.47Z" fill="#D9514A"/>
</svg>
