<svg width="199" height="306" viewBox="0 0 199 306" fill="none" xmlns="http://www.w3.org/2000/svg">
<path d="M59.8621 282.373C59.8621 282.373 78.874 282.11 96.3035 266.187" stroke="#FFB915" stroke-width="19.8144" stroke-miterlimit="10" stroke-linecap="round" stroke-linejoin="round"/>
<path d="M74.7762 216.769C71.0339 229.716 75.4917 251.984 73.3269 267.787" stroke="#FF9A15" stroke-width="19.8144" stroke-miterlimit="10" stroke-linecap="round" stroke-linejoin="round"/>
<path d="M90.5767 294.732C90.5767 294.732 109.589 294.468 127.018 278.546" stroke="#FFB915" stroke-width="19.8144" stroke-miterlimit="10" stroke-linecap="round" stroke-linejoin="round"/>
<path d="M105.491 229.127C101.749 242.074 106.206 264.342 104.041 280.145" stroke="#FF9A15" stroke-width="19.8144" stroke-miterlimit="10" stroke-linecap="round" stroke-linejoin="round"/>
<path d="M166.01 88.8342L186.48 97.4742" stroke="#FF8C00" stroke-width="18.2925" stroke-miterlimit="10" stroke-linecap="round" stroke-linejoin="round"/>
<path d="M186.48 66.9042L166.79 86.2742" stroke="#FFB915" stroke-width="23.5189" stroke-miterlimit="10" stroke-linecap="round" stroke-linejoin="round"/>
<path d="M184.4 74.2442L164.71 93.6242" stroke="#FF8C00" stroke-width="16" stroke-miterlimit="10" stroke-linecap="round" stroke-linejoin="round"/>
<path d="M113.26 231.954C88.58 228.064 71.74 204.904 75.63 180.224L91.55 79.3542C95.44 54.6842 118.6 37.8342 143.28 41.7242C167.95 45.6142 184.8 68.7742 180.91 93.4542L164.99 194.324C161.1 218.994 137.94 235.844 113.26 231.954Z" fill="#D9514A"/>
<path d="M161.15 102.854C169.744 102.854 176.71 93.3761 176.71 81.6842C176.71 69.9923 169.744 60.5142 161.15 60.5142C152.556 60.5142 145.59 69.9923 145.59 81.6842C145.59 93.3761 152.556 102.854 161.15 102.854Z" fill="white"/>
<path d="M83.72 138.024L10.61 180.594C-1.91997 187.894 -2.78997 205.684 8.97003 214.164L24.81 225.584C53.97 246.614 91.39 252.524 125.61 241.514L143.9 235.624C174 225.934 186.56 190.214 169.16 163.814" fill="#D9514A"/>
<path d="M60.88 225.584L45.04 214.164C33.28 205.684 34.14 187.894 46.68 180.594L118.22 138.934L127.62 79.3542C130.12 63.5042 140.58 50.8842 154.28 44.9242C150.84 43.4242 147.15 42.3442 143.28 41.7242C118.61 37.8342 95.45 54.6742 91.55 79.3542L82.15 138.934L10.61 180.594C-1.91997 187.894 -2.78997 205.684 8.97003 214.164L24.81 225.584C49.31 243.254 79.63 250.244 109 245.494C91.86 242.734 75.35 236.024 60.88 225.584Z" fill="#D43D35"/>
<path d="M113.11 50.8342C111.02 40.3442 103.5 32.0242 92.79 30.9942C89.63 30.6142 86.17 30.8642 82.72 31.2542C74.13 32.2442 66.36 26.0842 65.37 17.4842C63.97 7.0442 74.02 -1.9958 84.23 0.3842C90.21 1.6942 96.14 3.3542 101.89 6.2942C118.72 14.6542 128.46 32.3542 125.95 50.8342C124.85 58.3942 114.22 58.2942 113.11 50.8342Z" fill="#A62D67"/>
<path d="M100.2 261.084L78.18 258.754C70.71 257.964 66.78 249.484 71.01 243.274L117.43 175.064C123.98 165.434 136.61 162.074 147.09 167.164C157.01 171.994 162.23 183.084 159.62 193.804L152.15 224.534C146.44 248.004 124.23 263.634 100.2 261.084Z" fill="#AB2767"/>
<path d="M124.3 174.824C122.58 173.984 120.8 173.404 119 173.014C118.45 173.664 117.91 174.334 117.43 175.054L71.01 243.264C66.78 249.474 70.71 257.954 78.18 258.744L100.2 261.074C103.1 261.384 105.97 261.414 108.78 261.214C118.78 254.714 126.35 244.534 129.36 232.184L136.83 201.454C139.44 190.744 134.22 179.654 124.3 174.824Z" fill="#911D56"/>
</svg>
