<svg width="258" height="117" viewBox="0 0 258 117" fill="none" xmlns="http://www.w3.org/2000/svg">
<path d="M96.1454 22.4586C97.2337 21.6027 98.7663 21.6027 99.8546 22.4586L176.058 82.3919C178.297 84.1528 177.052 87.75 174.203 87.75H21.7967C18.9484 87.75 17.7033 84.1528 19.9421 82.3919L96.1454 22.4586Z" fill="black"/>
<path d="M150.917 2.01029C152.079 0.88864 153.921 0.888642 155.083 2.01029L238.587 82.5912C240.529 84.4651 239.202 87.75 236.504 87.75H69.4964C66.7979 87.75 65.4714 84.4651 67.4132 82.5912L150.917 2.01029Z" fill="black"/>
<path d="M90.3699 59.0546L31.5431 81.2644C29.3929 82.0762 27.7953 79.2139 29.615 77.8098L96.7706 25.9948C97.494 25.4367 98.5036 25.4397 99.2236 26.0023L115.122 38.4236C115.911 39.0401 117.035 38.9781 117.751 38.2786L151.468 5.35587C152.241 4.60054 153.475 4.59669 154.253 5.34719L217.603 66.4379C219.251 68.027 217.369 70.6897 215.321 69.6668L211.177 67.5972C209.936 66.9774 208.477 67.8798 208.477 69.2669C208.477 70.9249 206.476 71.7597 205.298 70.5933L164.678 30.3902C163.217 28.9443 160.787 30.3783 161.346 32.3561L164.727 44.306C165.191 45.9446 163.525 47.376 161.975 46.671L156.201 44.0455C154.275 43.1696 152.485 45.4944 153.825 47.1324L166.117 62.1602C167.504 63.8564 165.547 66.2273 163.618 65.1864L149.456 57.5406C148.123 56.8212 146.506 57.7862 146.506 59.3005V77.7734C146.506 79.56 144.342 80.4502 143.085 79.1806L105.12 40.8387C103.701 39.4055 101.293 40.7358 101.751 42.7001L106.309 62.2463C106.687 63.8707 105.028 65.2177 103.516 64.5134L91.9208 59.1127C91.4327 58.8854 90.8736 58.8644 90.3699 59.0546Z" fill="white"/>
</svg>
